<svg width="222" height="274" viewBox="0 0 222 274" fill="none" xmlns="http://www.w3.org/2000/svg">
<path d="M105.256 109.975C47.6905 106.247 39.5687 63.3376 38.8555 43.5738L19.1147 43.5738C20.9093 113.288 75.7372 130.935 105.187 129.646L105.256 109.975Z" fill="white"/>
<path d="M105.121 43.7127L85.7251 43.5057C84.3999 59.9609 98.3335 63.5226 105.466 63.2465L105.121 43.7127Z" fill="white"/>
<path d="M105.121 96.5849L104.983 76.9822C76.4069 77.9485 70.1258 55.6538 71.2302 43.2296L51.9725 43.4366C51.9725 89.5445 88.6702 96.1938 105.121 96.5849Z" fill="white"/>
<path d="M105.256 163.789C47.6905 167.516 39.5687 210.426 38.8555 230.189L19.1147 230.189C20.9093 160.475 75.7372 142.828 105.187 144.117L105.256 163.789Z" fill="white"/>
<path d="M105.121 230.051L85.7251 230.258C84.3999 213.803 98.3335 210.242 105.466 210.518L105.121 230.051Z" fill="white"/>
<path d="M105.121 177.179L104.983 196.782C76.4069 195.816 70.1258 218.11 71.2302 230.535L51.9725 230.328C51.9725 184.22 88.6702 177.57 105.121 177.179Z" fill="white"/>
<path d="M116.662 64.2217C174.227 67.949 182.349 110.859 183.062 130.623L202.803 130.623C201.009 60.9086 146.181 43.2615 116.731 44.5499L116.662 64.2217Z" fill="white"/>
<path d="M116.805 77.6128L116.943 97.2156C145.519 96.2492 151.8 118.544 150.696 130.968L169.953 130.761C169.953 84.6532 133.256 78.004 116.805 77.6128Z" fill="white"/>
<path d="M116.744 209.628C174.309 205.901 182.431 162.991 183.144 143.227L202.885 143.227C201.091 212.941 146.263 230.588 116.813 229.3L116.744 209.628Z" fill="white"/>
<path d="M116.879 196.238L117.017 176.635C145.593 177.601 151.874 155.307 150.77 142.882L170.027 143.089C170.027 189.197 133.33 195.847 116.879 196.238Z" fill="white"/>
</svg>
